<svg width="556" height="160" viewBox="0 0 556 160" fill="none" xmlns="http://www.w3.org/2000/svg">
<path d="M155.153 90.1095L109.459 117.412L63.7753 90.0952L63.7705 100.355L109.455 127.672L155.148 100.37L155.153 90.1095Z" fill="#8437EC"/>
<path d="M155.153 73.3429L109.459 100.646L63.7705 73.3286V84.1379L109.455 111.455L155.148 84.1523L155.153 73.3429Z" fill="#8437EC"/>
<path d="M127.377 53.9277L119.03 58.7664L101.665 68.821L101.675 68.8353L110.012 73.6644L127.382 63.605L136.414 68.8401L109.989 84.149L83.5679 68.8306L109.993 53.5265L118.34 48.6926L109.993 43.854L66.8789 68.8306L109.989 93.8215L153.108 68.8401L135.729 58.7712L127.377 53.9277Z" fill="#8437EC"/>
<path d="M201.747 115.524C197.046 115.524 193.177 114.492 190.15 112.424C187.124 110.356 185.406 107.686 185.001 104.409H194.657C195.037 105.675 195.899 106.697 197.241 107.476C198.578 108.254 200.172 108.646 202.019 108.646C204.517 108.646 206.463 108.006 207.858 106.731C209.252 105.455 209.951 103.745 209.951 101.596V95.2239H209.747C208.89 97.1871 207.463 98.7633 205.459 99.9479C203.456 101.132 201.162 101.725 198.573 101.725C194.119 101.725 190.555 100.101 187.89 96.8479C185.225 93.5951 183.888 89.1577 183.888 83.5309C183.888 77.7704 185.215 73.2327 187.871 69.9082C190.526 66.5885 194.148 64.9263 198.74 64.9263C201.305 64.9263 203.565 65.5472 205.526 66.7891C207.486 68.031 208.947 69.7124 209.913 71.8379H210.08V65.5042H219.802V101.319C219.802 105.632 218.156 109.076 214.858 111.655C211.56 114.235 207.191 115.524 201.747 115.524ZM201.914 94.111C204.388 94.111 206.354 93.1795 207.805 91.3167C209.257 89.4538 209.985 86.8841 209.985 83.6073C209.985 80.3306 209.252 77.7226 207.791 75.7786C206.33 73.8345 204.369 72.8649 201.919 72.8649C199.487 72.8649 197.56 73.8298 196.127 75.7643C194.7 77.694 193.986 80.3115 193.986 83.6073C193.986 86.9079 194.695 89.4825 196.113 91.331C197.526 93.1843 199.463 94.111 201.914 94.111Z" fill="#F7FAF9"/>
<path d="M225.774 101.836V52.9429H235.63V101.836H225.774Z" fill="#F7FAF9"/>
<path d="M274.987 65.5161V101.837H265.469V95.2979H265.265C263.375 100.108 259.763 102.515 254.429 102.515C250.47 102.515 247.305 101.302 244.945 98.8755C242.584 96.449 241.399 93.1341 241.399 88.9307V65.5161H251.255V86.8625C251.255 89.2794 251.835 91.1232 252.992 92.3842C254.153 93.65 255.823 94.2805 258.003 94.2805C260.187 94.2805 261.919 93.5592 263.199 92.1119C264.479 90.6646 265.122 88.7349 265.122 86.318V65.5161H274.987Z" fill="#F7FAF9"/>
<path d="M304.682 90.7259H313.728C313.19 94.294 311.415 97.1695 308.413 99.3476C305.41 101.526 301.679 102.615 297.22 102.615C291.662 102.615 287.303 100.943 284.138 97.5994C280.978 94.2558 279.394 89.6703 279.394 83.8429C279.394 78.0394 280.969 73.4014 284.119 69.9336C287.269 66.4658 291.514 64.7319 296.844 64.7319C302.088 64.7319 306.262 66.3798 309.369 69.6804C312.476 72.981 314.028 77.3946 314.028 82.9306V85.9446H289.082V86.556C289.082 89.1544 289.844 91.2609 291.362 92.8753C292.88 94.4898 294.888 95.2971 297.386 95.2971C299.185 95.2971 300.741 94.8863 302.045 94.0599C303.354 93.2384 304.23 92.1254 304.682 90.7259ZM296.949 72.0544C294.812 72.0544 293.027 72.79 291.6 74.2564C290.172 75.7275 289.368 77.6 289.187 79.8831H304.548C304.434 77.557 303.687 75.6702 302.302 74.2229C300.917 72.7804 299.133 72.0544 296.949 72.0544Z" fill="#F7FAF9"/>
<path d="M317.792 76.189C317.792 72.7308 319.176 69.9604 321.941 67.8683C324.711 65.7809 328.413 64.7349 333.048 64.7349C337.574 64.7349 341.205 65.7953 343.951 67.9208C346.696 70.0464 348.1 72.8693 348.172 76.3896H339.092C338.978 74.9232 338.378 73.7673 337.288 72.9314C336.199 72.0955 334.738 71.68 332.915 71.68C331.207 71.68 329.836 72.0382 328.813 72.7451C327.79 73.4568 327.276 74.3978 327.276 75.5728C327.276 77.3354 328.851 78.5868 332.001 79.332L338.921 80.8223C342.542 81.6343 345.15 82.8141 346.734 84.3617C348.319 85.9093 349.114 88.0396 349.114 90.7479C349.114 94.316 347.629 97.1867 344.66 99.3553C341.69 101.524 337.807 102.608 333.015 102.608C328.242 102.608 324.43 101.548 321.57 99.4221C318.71 97.3014 317.149 94.4402 316.878 90.8482H326.5C326.748 92.3863 327.452 93.5709 328.608 94.4068C329.769 95.2427 331.326 95.6582 333.286 95.6582C335.152 95.6582 336.622 95.3143 337.693 94.6265C338.763 93.9387 339.297 92.9929 339.297 91.7988C339.297 90.8721 338.959 90.1318 338.283 89.5777C337.607 89.0236 336.46 88.5555 334.838 88.1734L328.156 86.6831C321.246 85.1116 317.792 81.6104 317.792 76.189Z" fill="#F7FAF9"/>
<path d="M355.973 57.1455H365.828V65.514H372.514V72.9702H365.828V90.3521C365.828 93.0842 367.246 94.4503 370.082 94.4503C371.006 94.4503 371.805 94.393 372.481 94.2832V101.567C371.334 101.84 369.768 101.973 367.789 101.973C363.534 101.973 360.503 101.204 358.69 99.6711C356.877 98.1331 355.973 95.5919 355.973 92.0477V72.9702H350.876V65.514H355.973V57.1455Z" fill="#F7FAF9"/>
<path d="M387.605 102.414C384.117 102.414 381.223 101.387 378.93 99.3285C376.636 97.2745 375.484 94.6283 375.484 91.3994C375.484 88.1036 376.698 85.5147 379.13 83.6423C381.561 81.7699 385.035 80.6952 389.561 80.4229L398.674 79.8831V77.4758C398.674 75.804 398.127 74.4952 397.037 73.5447C395.947 72.5941 394.467 72.1213 392.597 72.1213C390.798 72.1213 389.328 72.5273 388.19 73.3393C387.053 74.1513 386.363 75.2499 386.115 76.6255H377.102C377.283 73.0575 378.801 70.182 381.661 68.0039C384.517 65.8258 388.309 64.7319 393.039 64.7319C397.675 64.7319 401.386 65.8401 404.18 68.0516C406.968 70.268 408.367 73.2008 408.367 76.8596V101.831H398.85V96.2763H398.65C397.66 98.1725 396.152 99.6724 394.124 100.766C392.097 101.86 389.922 102.414 387.605 102.414ZM390.846 95.2636C393.03 95.2636 394.881 94.6236 396.399 93.3482C397.917 92.0729 398.679 90.4632 398.679 88.5191V85.8777L391.05 86.3506C389.204 86.4891 387.781 86.9477 386.782 87.7406C385.778 88.5335 385.278 89.57 385.278 90.8596C385.278 92.2162 385.782 93.2861 386.796 94.079C387.81 94.872 389.161 95.2636 390.846 95.2636Z" fill="#F7FAF9"/>
<path d="M446.911 79.0311H437.765C437.47 77.0679 436.704 75.4869 435.452 74.288C434.205 73.089 432.587 72.492 430.608 72.492C428.157 72.492 426.225 73.4807 424.816 75.4582C423.408 77.4357 422.708 80.1631 422.708 83.6404C422.708 87.1846 423.413 89.9407 424.816 91.9086C426.225 93.8718 428.162 94.8558 430.641 94.8558C432.597 94.8558 434.196 94.2969 435.433 93.1792C436.67 92.0615 437.446 90.5091 437.76 88.5221H446.94C446.692 92.8114 445.084 96.2362 442.114 98.7869C439.145 101.342 435.286 102.618 430.536 102.618C425.045 102.618 420.7 100.932 417.507 97.5545C414.309 94.1775 412.715 89.5395 412.715 83.6452C412.715 77.8417 414.319 73.2371 417.526 69.8362C420.733 66.4353 425.05 64.7349 430.47 64.7349C435.286 64.7349 439.174 66.0675 442.134 68.7328C445.093 71.3981 446.688 74.8325 446.911 79.0311Z" fill="#F7FAF9"/>
<path d="M461.231 80.0832L473.518 65.5147H484.692L470.886 81.1006L485.367 101.836H474.027L463.663 87.0618L461.098 89.8417V101.836H451.242V52.9429H461.098V80.0832H461.231Z" fill="#F7FAF9"/>
</svg>
